# exported by kmdlswap
# KOTOR coordinates, written verbatim: no axis or UV flip is applied.
o TorsoHoses
v -0.0496103987 0.059641201 0.0328099988
v -0.0845531002 0.0637720004 0.0360676013
v -0.0774347037 0.0625262037 0.0600165986
v -0.0498518012 0.0598067008 0.0584020987
v -0.0940046981 0.0569366999 0.0690596029
v -0.131705999 0.0629962012 0.0893620029
v -0.107845001 0.0627866015 0.092004098
v -0.111120999 0.0564219989 0.0517740995
v -0.0498518012 0.0316637009 0.0584018007
v -0.0845531002 0.0358037017 0.0360672995
v -0.0496103987 0.0314982012 0.0328097008
v -0.0774345025 0.0343832001 0.0600163005
v -0.0940046981 0.0287937 0.0690592974
v -0.131705999 0.0348532014 0.0893618986
v -0.111120999 0.0285932999 0.0517739989
v -0.107845001 0.0346436016 0.092004098
v -0.0496103987 0.059641201 0.0328099988
v -0.0845531002 0.0358037017 0.0360672995
v -0.0845531002 0.0637720004 0.0360676013
v -0.0496103987 0.0314982012 0.0328097008
v -0.111120999 0.0564219989 0.0517740995
v -0.131705999 0.0348532014 0.0893618986
v -0.131705999 0.0629962012 0.0893620029
v -0.111120999 0.0285932999 0.0517739989
v -0.107845001 0.0346436016 0.092004098
v -0.0940046981 0.0287937 0.0690592974
v -0.107845001 0.0627866015 0.092004098
v -0.0774345025 0.0343832001 0.0600163005
v -0.0498518012 0.0316637009 0.0584018007
v -0.0498518012 0.115350999 0.0584026985
v -0.0774345025 0.109343 0.0600170009
v -0.0845531002 0.112103999 0.0360681005
v -0.0496103987 0.115350999 0.0328105018
v -0.0940046981 0.112529002 0.069060199
v -0.107845001 0.116671003 0.0920047015
v -0.131705999 0.116671003 0.0893625021
v -0.111120999 0.112651996 0.0517745987
v -0.0498519018 0.143493995 0.0584030002
v -0.0496103987 0.143493995 0.0328107998
v -0.0774345994 0.137485996 0.0600173995
v -0.0845531002 0.140247002 0.0360683985
v -0.0940048024 0.140671998 0.069060497
v -0.111120999 0.140795007 0.0517749004
v -0.107845001 0.144814 0.0920050964
v -0.131705999 0.144814 0.0893628001
v -0.0496103987 0.115350999 0.0328105018
v -0.0845531002 0.112103999 0.0360681005
v -0.0845531002 0.140247002 0.0360683985
v -0.0496103987 0.143493995 0.0328107998
v -0.111120999 0.112651996 0.0517745987
v -0.131705999 0.116671003 0.0893625021
v -0.131705999 0.144814 0.0893628001
v -0.111120999 0.140795007 0.0517749004
v -0.107845001 0.116671003 0.0920047015
v -0.0940046981 0.112529002 0.069060199
v -0.107845001 0.144814 0.0920050964
v -0.0774345025 0.109343 0.0600170009
v -0.0498518012 0.115350999 0.0584026985
v -0.0498519018 0.143493995 0.0584030002
v -0.0774345994 0.137485996 0.0600173995
v 0.0464295 0.059641201 0.0328103006
v 0.0742530003 0.0625262037 0.0600165017
v 0.0813715979 0.0637720972 0.0360676013
v 0.0466708988 0.0598067008 0.0584024005
v 0.090822801 0.0569366999 0.0690590963
v 0.104663 0.0627866983 0.0920030028
v 0.128523007 0.0629962981 0.0893606022
v 0.107938997 0.0564220995 0.0517734997
v 0.0466708988 0.0316637009 0.0584020987
v 0.0464296006 0.0314982012 0.0328100994
v 0.0813715979 0.0358037017 0.0360672995
v 0.0742529035 0.0343833007 0.0600163005
v 0.090822801 0.0287937 0.0690587983
v 0.107938997 0.0285934005 0.0517732017
v 0.128523007 0.0348532982 0.0893602967
v 0.104663 0.0346436985 0.0920028985
v 0.0464295 0.059641201 0.0328103006
v 0.0813715979 0.0637720972 0.0360676013
v 0.0813715979 0.0358037017 0.0360672995
v 0.0464296006 0.0314982012 0.0328100994
v 0.107938997 0.0564220995 0.0517734997
v 0.128523007 0.0629962981 0.0893606022
v 0.128523007 0.0348532982 0.0893602967
v 0.107938997 0.0285934005 0.0517732017
v 0.104663 0.0346436985 0.0920028985
v 0.090822801 0.0569366999 0.0690590963
v 0.090822801 0.0287937 0.0690587983
v 0.104663 0.0627866983 0.0920030028
v 0.0742529035 0.0343833007 0.0600163005
v 0.0466708988 0.0598067008 0.0584024005
v 0.0466708988 0.0316637009 0.0584020987
v 0.0742530003 0.0625262037 0.0600165017
v 0.0466708988 0.115350999 0.0584030002
v 0.0813715979 0.112103999 0.0360681005
v 0.0742527992 0.109343 0.0600171015
v 0.0464293994 0.115350999 0.0328107998
v 0.090822801 0.112529002 0.0690596029
v 0.128523007 0.116671003 0.0893611982
v 0.104663 0.116671003 0.0920035988
v 0.107938997 0.112651996 0.0517739989
v 0.0466708988 0.143493995 0.0584032983
v 0.0742527992 0.137485996 0.0600173995
v 0.0464296006 0.143493995 0.0328111015
v 0.0813715011 0.140247002 0.0360683985
v 0.090822801 0.140671998 0.0690599009
v 0.104663 0.144814 0.0920040011
v 0.107938997 0.140795007 0.0517743006
v 0.128523007 0.144814 0.0893615037
v 0.0464293994 0.115350999 0.0328107998
v 0.0813715011 0.140247002 0.0360683985
v 0.0813715979 0.112103999 0.0360681005
v 0.0464296006 0.143493995 0.0328111015
v 0.107938997 0.112651996 0.0517739989
v 0.128523007 0.144814 0.0893615037
v 0.128523007 0.116671003 0.0893611982
v 0.107938997 0.140795007 0.0517743006
v 0.104663 0.116671003 0.0920035988
v 0.090822801 0.140671998 0.0690599009
v 0.090822801 0.112529002 0.0690596029
v 0.104663 0.144814 0.0920040011
v 0.0742527992 0.109343 0.0600171015
v 0.0466708988 0.143493995 0.0584032983
v 0.0466708988 0.115350999 0.0584030002
v 0.0742527992 0.137485996 0.0600173995
vt 0.963750005 0.203941002
vt 0.963747025 0.240257993
vt 0.938513994 0.240254998
vt 0.938521981 0.203924999
vt 0.938512027 0.263518006
vt 0.963717997 0.301097006
vt 0.938499987 0.301036
vt 0.963742018 0.263590991
vt 0.938521981 0.203924999
vt 0.963747025 0.240257993
vt 0.963750005 0.203941002
vt 0.938513994 0.240254998
vt 0.938512027 0.263518006
vt 0.963717997 0.301097006
vt 0.963742018 0.263590991
vt 0.938499987 0.301036
vt 0.963756979 0.300933987
vt 0.994216025 0.263487995
vt 0.963765025 0.263487011
vt 0.994207978 0.300989002
vt 0.963762999 0.240235001
vt 0.994240999 0.203932002
vt 0.963766992 0.203931004
vt 0.994233012 0.240235999
vt 0.918467999 0.300980985
vt 0.918470025 0.263534009
vt 0.938508987 0.300962001
vt 0.918474019 0.240262002
vt 0.918480992 0.203931004
vt 0.938521981 0.203924999
vt 0.938513994 0.240254998
vt 0.963747025 0.240257993
vt 0.963750005 0.203941002
vt 0.938512027 0.263518006
vt 0.938499987 0.301036
vt 0.963717997 0.301097006
vt 0.963742018 0.263590991
vt 0.938521981 0.203924999
vt 0.963750005 0.203941002
vt 0.938513994 0.240254998
vt 0.963747025 0.240257993
vt 0.938512027 0.263518006
vt 0.963742018 0.263590991
vt 0.938499987 0.301036
vt 0.963717997 0.301097006
vt 0.994213998 0.300974995
vt 0.994229019 0.263482988
vt 0.963760972 0.263473004
vt 0.963757992 0.300947011
vt 0.994238019 0.240248993
vt 0.994230986 0.203935996
vt 0.963761985 0.203925997
vt 0.963762999 0.240238994
vt 0.918466985 0.300956011
vt 0.918470979 0.263525009
vt 0.93850702 0.300936997
vt 0.918474019 0.240271002
vt 0.918482006 0.203922004
vt 0.938522995 0.203915
vt 0.938515007 0.240263999
vt 0.963750005 0.203941002
vt 0.938513994 0.240254998
vt 0.963747025 0.240257993
vt 0.938521981 0.203924999
vt 0.938512027 0.263518006
vt 0.938499987 0.301036
vt 0.963716984 0.301097006
vt 0.963742018 0.263590991
vt 0.938521981 0.203924999
vt 0.963750005 0.203941002
vt 0.963747025 0.240257993
vt 0.938513994 0.240254998
vt 0.938512027 0.263518006
vt 0.963742018 0.263590991
vt 0.963716984 0.301097006
vt 0.938499987 0.301036
vt 0.963756979 0.300953001
vt 0.963765025 0.263494015
vt 0.994216025 0.263494015
vt 0.994207978 0.301007986
vt 0.963762999 0.240241006
vt 0.963766992 0.203938007
vt 0.994240999 0.203939006
vt 0.994233012 0.240242004
vt 0.918467999 0.300990999
vt 0.938511014 0.263530999
vt 0.918470025 0.263538003
vt 0.938508987 0.300972015
vt 0.918474019 0.240264997
vt 0.938521981 0.203927994
vt 0.918480992 0.203934997
vt 0.938513994 0.240259007
vt 0.938521981 0.203924999
vt 0.963747025 0.240257993
vt 0.938513994 0.240254998
vt 0.963750005 0.203941002
vt 0.938512027 0.263518006
vt 0.963716984 0.301097006
vt 0.938499987 0.301036
vt 0.963742018 0.263590991
vt 0.938521981 0.203924999
vt 0.938513994 0.240254998
vt 0.963750005 0.203941002
vt 0.963747025 0.240257993
vt 0.938512027 0.263518006
vt 0.938499987 0.301036
vt 0.963742018 0.263590991
vt 0.963716984 0.301097006
vt 0.994213998 0.300994009
vt 0.963760972 0.263478994
vt 0.994229019 0.263489991
vt 0.963757992 0.300965011
vt 0.994238019 0.240255997
vt 0.963761985 0.203933001
vt 0.994230986 0.203942999
vt 0.963762999 0.240245998
vt 0.918466985 0.300965995
vt 0.938512027 0.263521999
vt 0.918470979 0.263529003
vt 0.93850702 0.300947011
vt 0.918474019 0.240273997
vt 0.938522995 0.203918993
vt 0.918482006 0.203925997
vt 0.938515007 0.240268007
vn -0.0041854959 0.625955939 -0.779847205
vn -0.344273835 0.628685117 -0.697302341
vn 0.218581393 0.733268261 0.643847644
vn 0.0937257633 0.412748247 0.906010151
vn 0.423036784 0.83610183 0.349247247
vn -0.465820998 0.781852365 -0.414388329
vn 0.722976029 0.634018421 0.274456382
vn -0.708772779 0.474183768 -0.522293866
vn -0.0754023641 -0.896773696 0.436017662
vn -0.175551385 -0.626031697 -0.759780228
vn -0.150202528 -0.666583896 -0.730140448
vn 0.19844164 -0.701237738 0.684752941
vn 0.411671817 -0.736083925 0.537314355
vn -0.773451805 -0.550412714 -0.314353645
vn -0.502751887 -0.62011224 -0.60224694
vn 0.76028651 -0.349318713 0.547668576
vn -0.0041854959 0.625955939 -0.779847205
vn -0.175551385 -0.626031697 -0.759780228
vn -0.344273835 0.628685117 -0.697302341
vn -0.150202528 -0.666583896 -0.730140448
vn -0.708772779 0.474183768 -0.522293866
vn -0.773451805 -0.550412714 -0.314353645
vn -0.465820998 0.781852365 -0.414388329
vn -0.502751887 -0.62011224 -0.60224694
vn 0.76028651 -0.349318713 0.547668576
vn 0.411671817 -0.736083925 0.537314355
vn 0.722976029 0.634018421 0.274456382
vn 0.19844164 -0.701237738 0.684752941
vn -0.0754023641 -0.896773696 0.436017662
vn 0.155856758 -0.910592735 0.382791728
vn 0.139178425 -0.696175814 0.704250395
vn -0.223558277 -0.638784349 -0.736190379
vn -0.0463781506 -0.413287312 -0.909418881
vn 0.370165706 -0.739401162 0.562372923
vn 0.77197504 -0.352106363 0.529221773
vn -0.572556376 -0.793166935 -0.207522169
vn -0.691099942 -0.551089227 -0.467633963
vn -0.0368817113 0.413745642 0.90964514
vn -0.173007742 0.862025201 -0.476425141
vn 0.155921966 0.729517579 0.665952265
vn -0.17387712 0.612806618 -0.770866275
vn 0.622774482 0.654466987 0.428748071
vn -0.496919453 0.622368097 -0.604755282
vn 0.415651232 0.90052259 0.127644315
vn -0.800794959 0.361885428 -0.477248728
vn -0.0463781506 -0.413287312 -0.909418881
vn -0.223558277 -0.638784349 -0.736190379
vn -0.17387712 0.612806618 -0.770866275
vn -0.173007742 0.862025201 -0.476425141
vn -0.691099942 -0.551089227 -0.467633963
vn -0.572556376 -0.793166935 -0.207522169
vn -0.800794959 0.361885428 -0.477248728
vn -0.496919453 0.622368097 -0.604755282
vn 0.77197504 -0.352106363 0.529221773
vn 0.370165706 -0.739401162 0.562372923
vn 0.415651232 0.90052259 0.127644315
vn 0.139178425 -0.696175814 0.704250395
vn 0.155856758 -0.910592735 0.382791728
vn -0.0368817113 0.413745642 0.90964514
vn 0.155921966 0.729517579 0.665952265
vn 0.00417724764 0.625952184 -0.779850245
vn -0.21857366 0.733269334 0.643849075
vn 0.344266683 0.628686965 -0.697304189
vn -0.0937170982 0.412749678 0.906010389
vn -0.423036724 0.836097717 0.349257141
vn -0.722985089 0.634003639 0.274466664
vn 0.465823561 0.78185159 -0.414386868
vn 0.708774447 0.474187225 -0.522288442
vn 0.0754097924 -0.896772146 0.436019629
vn 0.150197327 -0.666584432 -0.730141044
vn 0.175544739 -0.626030982 -0.759782374
vn -0.198434353 -0.701239467 0.684753239
vn -0.411666304 -0.7360816 0.537321806
vn 0.50274986 -0.620111406 -0.602249444
vn 0.773460984 -0.550404251 -0.314345866
vn -0.760284126 -0.349308789 0.547678232
vn 0.00417724764 0.625952184 -0.779850245
vn 0.344266683 0.628686965 -0.697304189
vn 0.175544739 -0.626030982 -0.759782374
vn 0.150197327 -0.666584432 -0.730141044
vn 0.708774447 0.474187225 -0.522288442
vn 0.465823561 0.78185159 -0.414386868
vn 0.773460984 -0.550404251 -0.314345866
vn 0.50274986 -0.620111406 -0.602249444
vn -0.760284126 -0.349308789 0.547678232
vn -0.423036724 0.836097717 0.349257141
vn -0.411666304 -0.7360816 0.537321806
vn -0.722985089 0.634003639 0.274466664
vn -0.198434353 -0.701239467 0.684753239
vn -0.0937170982 0.412749678 0.906010389
vn 0.0754097924 -0.896772146 0.436019629
vn -0.21857366 0.733269334 0.643849075
vn -0.155857459 -0.910594523 0.382787198
vn 0.223550096 -0.638784647 -0.736192584
vn -0.139170542 -0.696176827 0.704250932
vn 0.0463711843 -0.413288921 -0.909418464
vn -0.370158851 -0.739395857 0.562384367
vn 0.572566211 -0.793161094 -0.20751743
vn -0.771974444 -0.35209617 0.529229403
vn 0.691103756 -0.551088929 -0.467628688
vn 0.03689133 0.413746864 0.909644186
vn -0.155908465 0.729517937 0.665955067
vn 0.17300801 0.862024844 -0.476425678
vn 0.173871249 0.612805724 -0.770868301
vn -0.622770369 0.654467285 0.428753614
vn -0.415657818 0.900518656 0.127650917
vn 0.496919453 0.622365773 -0.604757726
vn 0.8008039 0.361876547 -0.477240503
vn 0.0463711843 -0.413288921 -0.909418464
vn 0.173871249 0.612805724 -0.770868301
vn 0.223550096 -0.638784647 -0.736192584
vn 0.17300801 0.862024844 -0.476425678
vn 0.691103756 -0.551088929 -0.467628688
vn 0.8008039 0.361876547 -0.477240503
vn 0.572566211 -0.793161094 -0.20751743
vn 0.496919453 0.622365773 -0.604757726
vn -0.771974444 -0.35209617 0.529229403
vn -0.622770369 0.654467285 0.428753614
vn -0.370158851 -0.739395857 0.562384367
vn -0.415657818 0.900518656 0.127650917
vn -0.139170542 -0.696176827 0.704250932
vn 0.03689133 0.413746864 0.909644186
vn -0.155857459 -0.910594523 0.382787198
vn -0.155908465 0.729517937 0.665955067
f 1/1/1 2/2/2 3/3/3
f 3/3/3 4/4/4 1/1/1
f 5/5/5 6/6/6 7/7/7
f 6/6/6 5/5/5 8/8/8
f 9/9/9 10/10/10 11/11/11
f 10/10/10 9/9/9 12/12/12
f 13/13/13 14/14/14 15/15/15
f 14/14/14 13/13/13 16/16/16
f 17/17/17 18/18/18 19/19/19
f 18/18/18 17/17/17 20/20/20
f 21/21/21 22/22/22 23/23/23
f 22/22/22 21/21/21 24/24/24
f 25/25/25 26/26/26 5/5/5
f 5/5/5 27/27/27 25/25/25
f 28/28/28 29/29/29 4/4/4
f 4/4/4 3/3/3 28/28/28
f 30/30/30 31/31/31 32/32/32
f 32/32/32 33/33/33 30/30/30
f 34/34/34 35/35/35 36/36/36
f 36/36/36 37/37/37 34/34/34
f 38/38/38 39/39/39 40/40/40
f 41/41/41 40/40/40 39/39/39
f 42/42/42 43/43/43 44/44/44
f 45/45/45 44/44/44 43/43/43
f 46/46/46 47/47/47 48/48/48
f 48/48/48 49/49/49 46/46/46
f 50/50/50 51/51/51 52/52/52
f 52/52/52 53/53/53 50/50/50
f 54/54/54 55/55/55 42/42/42
f 42/42/42 56/56/56 54/54/54
f 57/57/57 58/58/58 59/59/59
f 59/59/59 60/60/60 57/57/57
f 3/3/3 2/2/2 5/5/5
f 8/8/8 5/5/5 2/2/2
f 13/13/13 15/15/15 12/12/12
f 10/10/10 12/12/12 15/15/15
f 5/5/5 26/26/26 3/3/3
f 28/28/28 3/3/3 26/26/26
f 34/34/34 37/37/37 31/31/31
f 32/32/32 31/31/31 37/37/37
f 50/50/50 53/53/53 47/47/47
f 48/48/48 47/47/47 53/53/53
f 57/57/57 60/60/60 55/55/55
f 42/42/42 55/55/55 60/60/60
f 18/18/18 24/24/24 19/19/19
f 19/19/19 24/24/24 21/21/21
f 41/41/41 42/42/42 40/40/40
f 41/41/41 43/43/43 42/42/42
f 61/61/61 62/62/62 63/63/63
f 62/62/62 61/61/61 64/64/64
f 65/65/65 66/66/66 67/67/67
f 67/67/67 68/68/68 65/65/65
f 69/69/69 70/70/70 71/71/71
f 71/71/71 72/72/72 69/69/69
f 73/73/73 74/74/74 75/75/75
f 75/75/75 76/76/76 73/73/73
f 77/77/77 78/78/78 79/79/79
f 79/79/79 80/80/80 77/77/77
f 81/81/81 82/82/82 83/83/83
f 83/83/83 84/84/84 81/81/81
f 85/85/85 86/86/86 87/87/87
f 86/86/86 85/85/85 88/88/88
f 89/89/89 90/90/90 91/91/91
f 90/90/90 89/89/89 92/92/92
f 93/93/93 94/94/94 95/95/95
f 94/94/94 93/93/93 96/96/96
f 97/97/97 98/98/98 99/99/99
f 98/98/98 97/97/97 100/100/100
f 101/101/101 102/102/102 103/103/103
f 104/104/104 103/103/103 102/102/102
f 105/105/105 106/106/106 107/107/107
f 108/108/108 107/107/107 106/106/106
f 109/109/109 110/110/110 111/111/111
f 110/110/110 109/109/109 112/112/112
f 113/113/113 114/114/114 115/115/115
f 114/114/114 113/113/113 116/116/116
f 117/117/117 118/118/118 119/119/119
f 118/118/118 117/117/117 120/120/120
f 121/121/121 122/122/122 123/123/123
f 122/122/122 121/121/121 124/124/124
f 62/62/62 65/65/65 63/63/63
f 68/68/68 63/63/63 65/65/65
f 73/73/73 72/72/72 74/74/74
f 71/71/71 74/74/74 72/72/72
f 86/86/86 92/92/92 87/87/87
f 89/89/89 87/87/87 92/92/92
f 97/97/97 95/95/95 100/100/100
f 94/94/94 100/100/100 95/95/95
f 113/113/113 111/111/111 116/116/116
f 110/110/110 116/116/116 111/111/111
f 121/121/121 119/119/119 124/124/124
f 118/118/118 124/124/124 119/119/119
f 79/79/79 78/78/78 84/84/84
f 78/78/78 81/81/81 84/84/84
f 104/104/104 102/102/102 105/105/105
f 104/104/104 105/105/105 107/107/107
